# xmcd CD database file
#
# Track frame offsets:
#	150
#	13838
#	24659
#	37351
#	53738
#	67508
#	81458
#	99597
#	132970
#	150999
#	167951
#	177605
#	193810
#
# Disc length: 2805 seconds
#
# Revision: 0
# Processed by: cddbd v1.5.2PL0 Copyright (c) Steve Scherf et al.
# Submitted via: CDex 1.60beta1-cs1
#
DISCID=b10af30d
DTITLE=Maysa (Matarazzo) Monjardim - 'Quando fala o coração'  [CD 2de2)
DYEAR=2008
DGENRE=Jazz
TTITLE0=Dindi
TTITLE1=O barquinho
TTITLE2=Besame mucho
TTITLE3=Chão de estrelas
TTITLE4=I love Paris
TTITLE5=Quizás, quizás
TTITLE6=Fim de noite
TTITLE7=Pot-pourri 'Fantasia de cellos'
TTITLE8=Pot-pourri
TTITLE9=Ne me quitte pas
TTITLE10=Bonita
TTITLE11=What are you doing the rest of your life
TTITLE12=Morrer de amor
EXTD=YEAR: 2008
EXTT0=
EXTT1=
EXTT2=
EXTT3=
EXTT4=
EXTT5=
EXTT6=
EXTT7=
EXTT8=
EXTT9=
EXTT10=
EXTT11=
EXTT12=
PLAYORDER=
